<svg xmlns="http://www.w3.org/2000/svg" width="256" height="256"><path fill-opacity=".016" d="M0 128.004v128.004l128.25-.254 128.25-.254.254-127.75L257.008 0H0v128.004m.485.496c0 70.4.119 99.053.265 63.672.146-35.38.146-92.98 0-128C.604 29.153.485 58.1.485 128.5" fill="#1976D2" fill-rule="evenodd"/><path fill-opacity=".135" d="M1 95.756v95.756l31.756 31.744L64.512 255H256V63.78l-32.25-31.843L191.5.095 96.25.047 1 0v95.756" fill="#1976D2" fill-rule="evenodd"/><path fill-opacity=".194" d="M192 96.268V191H97c-52.25 0-95 .34-95 .756s14.065 14.816 31.256 32L64.512 255H256V64.483l-21.25-20.997c-11.687-11.547-26.088-25.71-32-31.473L192 1.536v94.732" fill="#1976D2" fill-rule="evenodd"/><path fill-opacity=".217" d="M213 117.893V213H23.518L44.5 234l20.982 21H255V63.262l-21-20.238-21-20.238v95.107" fill="#1976D2" fill-rule="evenodd"/></svg>